<?xml version="1.0" encoding="utf-8"?><!-- Uploaded to: SVG Repo, www.svgrepo.com, Generator: SVG Repo Mixer Tools -->
<svg fill="#000000" width="800px" height="800px" viewBox="0 0 24 24" id="bathtub-4" data-name="Flat Line" xmlns="http://www.w3.org/2000/svg" class="icon flat-line"><path id="secondary" d="M8,6h4a4,4,0,0,1,4,4v8a4,4,0,0,1-4,4H8a0,0,0,0,1,0,0V6A0,0,0,0,1,8,6Z" transform="translate(26 2) rotate(90)" style="fill: rgb(44, 169, 188); stroke-width: 2;"></path><path id="primary" d="M9,6H9A2,2,0,0,0,7,4H7A2,2,0,0,0,5,6v4" style="fill: none; stroke: rgb(0, 0, 0); stroke-linecap: round; stroke-linejoin: round; stroke-width: 2;"></path><path id="primary-2" data-name="primary" d="M17.5,18l.5,2M6.5,18,6,20M3,10H21m-1,4V10H4v4a4,4,0,0,0,4,4h8A4,4,0,0,0,20,14Z" style="fill: none; stroke: rgb(0, 0, 0); stroke-linecap: round; stroke-linejoin: round; stroke-width: 2;"></path></svg>